<mxfile host="app.diagrams.net" agent="Mozilla/5.0 (Windows NT 10.0; Win64; x64) AppleWebKit/537.36 (KHTML, like Gecko) Chrome/129.0.0.0 Safari/537.36" version="24.7.17">
  <diagram name="Página-1" id="3vzuqi51CTYV-om-FRnV">
    <mxGraphModel grid="1" page="1" gridSize="10" guides="1" tooltips="1" connect="1" arrows="1" fold="1" pageScale="1" pageWidth="827" pageHeight="1169" math="0" shadow="0">
      <root>
        <mxCell id="0" />
        <mxCell id="1" parent="0" />
        <mxCell id="qtmXfqeRm_u3KYvekXxL-1" value="Usuario" style="rounded=0;whiteSpace=wrap;html=1;" vertex="1" parent="1">
          <mxGeometry x="150" y="80" width="110" height="40" as="geometry" />
        </mxCell>
        <mxCell id="qtmXfqeRm_u3KYvekXxL-2" value="Sistema" style="rounded=0;whiteSpace=wrap;html=1;" vertex="1" parent="1">
          <mxGeometry x="460" y="80" width="110" height="40" as="geometry" />
        </mxCell>
        <mxCell id="qtmXfqeRm_u3KYvekXxL-3" value="" style="endArrow=none;dashed=1;html=1;rounded=0;entryX=0.5;entryY=1;entryDx=0;entryDy=0;" edge="1" parent="1" target="qtmXfqeRm_u3KYvekXxL-2">
          <mxGeometry width="50" height="50" relative="1" as="geometry">
            <mxPoint x="515" y="830" as="sourcePoint" />
            <mxPoint x="440" y="220" as="targetPoint" />
          </mxGeometry>
        </mxCell>
        <mxCell id="qtmXfqeRm_u3KYvekXxL-4" value="" style="endArrow=none;dashed=1;html=1;rounded=0;entryX=0.5;entryY=1;entryDx=0;entryDy=0;" edge="1" parent="1" target="qtmXfqeRm_u3KYvekXxL-1">
          <mxGeometry width="50" height="50" relative="1" as="geometry">
            <mxPoint x="205" y="830" as="sourcePoint" />
            <mxPoint x="440" y="220" as="targetPoint" />
          </mxGeometry>
        </mxCell>
        <mxCell id="qtmXfqeRm_u3KYvekXxL-5" value="" style="endArrow=classic;html=1;rounded=0;entryX=0;entryY=1;entryDx=0;entryDy=0;" edge="1" parent="1" target="qtmXfqeRm_u3KYvekXxL-6">
          <mxGeometry width="50" height="50" relative="1" as="geometry">
            <mxPoint x="200" y="160" as="sourcePoint" />
            <mxPoint x="610" y="167.5" as="targetPoint" />
          </mxGeometry>
        </mxCell>
        <mxCell id="qtmXfqeRm_u3KYvekXxL-6" value="" style="rounded=0;whiteSpace=wrap;html=1;rotation=90;" vertex="1" parent="1">
          <mxGeometry x="485" y="185" width="60" height="10" as="geometry" />
        </mxCell>
        <mxCell id="qtmXfqeRm_u3KYvekXxL-12" value="CreaNuevoRegistro&lt;div&gt;&lt;br&gt;&lt;/div&gt;" style="text;html=1;align=center;verticalAlign=middle;resizable=0;points=[];autosize=1;strokeColor=none;fillColor=none;" vertex="1" parent="1">
          <mxGeometry x="300" y="140" width="130" height="40" as="geometry" />
        </mxCell>
        <mxCell id="qtmXfqeRm_u3KYvekXxL-13" value="" style="endArrow=none;dashed=1;html=1;dashPattern=1 3;strokeWidth=2;rounded=0;entryX=1;entryY=1;entryDx=0;entryDy=0;" edge="1" parent="1" target="qtmXfqeRm_u3KYvekXxL-6">
          <mxGeometry width="50" height="50" relative="1" as="geometry">
            <mxPoint x="200" y="220" as="sourcePoint" />
            <mxPoint x="440" y="220" as="targetPoint" />
          </mxGeometry>
        </mxCell>
        <mxCell id="qtmXfqeRm_u3KYvekXxL-14" value="MuestraFormDeRegistro" style="text;html=1;align=center;verticalAlign=middle;resizable=0;points=[];autosize=1;strokeColor=none;fillColor=none;" vertex="1" parent="1">
          <mxGeometry x="295" y="198" width="150" height="30" as="geometry" />
        </mxCell>
        <mxCell id="qtmXfqeRm_u3KYvekXxL-17" value="" style="endArrow=classic;html=1;rounded=0;entryX=0;entryY=0.75;entryDx=0;entryDy=0;" edge="1" parent="1" target="qtmXfqeRm_u3KYvekXxL-18">
          <mxGeometry width="50" height="50" relative="1" as="geometry">
            <mxPoint x="200" y="275" as="sourcePoint" />
            <mxPoint x="496" y="282.02" as="targetPoint" />
          </mxGeometry>
        </mxCell>
        <mxCell id="qtmXfqeRm_u3KYvekXxL-18" value="" style="rounded=0;whiteSpace=wrap;html=1;rotation=90;" vertex="1" parent="1">
          <mxGeometry x="485" y="300" width="60" height="10" as="geometry" />
        </mxCell>
        <mxCell id="qtmXfqeRm_u3KYvekXxL-21" value="IngresaDatos(Nombre,Apellido,Direccion,Etc)" style="text;html=1;align=center;verticalAlign=middle;resizable=0;points=[];autosize=1;strokeColor=none;fillColor=none;" vertex="1" parent="1">
          <mxGeometry x="225" y="248" width="270" height="30" as="geometry" />
        </mxCell>
        <mxCell id="qtmXfqeRm_u3KYvekXxL-27" value="Verifica si el usuario existe o no" style="shape=note;size=20;whiteSpace=wrap;html=1;" vertex="1" parent="1">
          <mxGeometry x="650" y="370" width="100" height="100" as="geometry" />
        </mxCell>
        <mxCell id="qtmXfqeRm_u3KYvekXxL-29" value="" style="endArrow=none;dashed=1;html=1;dashPattern=1 3;strokeWidth=2;rounded=0;entryX=1;entryY=1;entryDx=0;entryDy=0;" edge="1" parent="1" target="qtmXfqeRm_u3KYvekXxL-18">
          <mxGeometry width="50" height="50" relative="1" as="geometry">
            <mxPoint x="210" y="335" as="sourcePoint" />
            <mxPoint x="450" y="320" as="targetPoint" />
          </mxGeometry>
        </mxCell>
        <mxCell id="qtmXfqeRm_u3KYvekXxL-30" value="Actor" style="shape=umlActor;verticalLabelPosition=bottom;verticalAlign=top;html=1;outlineConnect=0;" vertex="1" parent="1">
          <mxGeometry x="160" y="85" width="20" height="30" as="geometry" />
        </mxCell>
        <mxCell id="qtmXfqeRm_u3KYvekXxL-31" value="Opt" style="shape=umlFrame;whiteSpace=wrap;html=1;pointerEvents=0;" vertex="1" parent="1">
          <mxGeometry x="120" y="360" width="450" height="260" as="geometry" />
        </mxCell>
        <mxCell id="qtmXfqeRm_u3KYvekXxL-32" value="IngresarNuevo(Usuario,Contraseña)" style="html=1;verticalAlign=bottom;endArrow=block;curved=0;rounded=0;" edge="1" parent="1">
          <mxGeometry width="80" relative="1" as="geometry">
            <mxPoint x="210" y="409.5" as="sourcePoint" />
            <mxPoint x="510" y="409.5" as="targetPoint" />
          </mxGeometry>
        </mxCell>
        <mxCell id="qtmXfqeRm_u3KYvekXxL-33" value="" style="rounded=0;whiteSpace=wrap;html=1;rotation=90;" vertex="1" parent="1">
          <mxGeometry x="389.7" y="525.31" width="250.62" height="10" as="geometry" />
        </mxCell>
        <mxCell id="qtmXfqeRm_u3KYvekXxL-35" value="Si el usuario existe" style="text;html=1;align=center;verticalAlign=middle;resizable=0;points=[];autosize=1;strokeColor=none;fillColor=none;" vertex="1" parent="1">
          <mxGeometry x="200" y="360" width="120" height="30" as="geometry" />
        </mxCell>
        <mxCell id="qtmXfqeRm_u3KYvekXxL-36" value="" style="endArrow=none;dashed=1;html=1;dashPattern=1 3;strokeWidth=2;rounded=0;entryX=1;entryY=1;entryDx=0;entryDy=0;" edge="1" parent="1">
          <mxGeometry width="50" height="50" relative="1" as="geometry">
            <mxPoint x="205" y="460" as="sourcePoint" />
            <mxPoint x="515" y="460" as="targetPoint" />
          </mxGeometry>
        </mxCell>
        <mxCell id="qtmXfqeRm_u3KYvekXxL-37" value="Mostrar(&quot;El Usuario ya existe&quot;)" style="text;html=1;align=center;verticalAlign=middle;resizable=0;points=[];autosize=1;strokeColor=none;fillColor=none;" vertex="1" parent="1">
          <mxGeometry x="275" y="428" width="190" height="30" as="geometry" />
        </mxCell>
        <mxCell id="qtmXfqeRm_u3KYvekXxL-38" value="" style="endArrow=none;html=1;rounded=0;exitX=-0.004;exitY=0.515;exitDx=0;exitDy=0;exitPerimeter=0;entryX=0.996;entryY=0.508;entryDx=0;entryDy=0;entryPerimeter=0;" edge="1" parent="1" source="qtmXfqeRm_u3KYvekXxL-31" target="qtmXfqeRm_u3KYvekXxL-31">
          <mxGeometry relative="1" as="geometry">
            <mxPoint x="330" y="600" as="sourcePoint" />
            <mxPoint x="490" y="600" as="targetPoint" />
          </mxGeometry>
        </mxCell>
        <mxCell id="qtmXfqeRm_u3KYvekXxL-40" value="Opt 2" style="text;html=1;align=center;verticalAlign=middle;resizable=0;points=[];autosize=1;strokeColor=none;fillColor=none;" vertex="1" parent="1">
          <mxGeometry x="120" y="496.25" width="50" height="30" as="geometry" />
        </mxCell>
        <mxCell id="qtmXfqeRm_u3KYvekXxL-42" value="IngresarNuevo(Usuario,Contraseña)" style="html=1;verticalAlign=bottom;endArrow=block;curved=0;rounded=0;" edge="1" parent="1">
          <mxGeometry width="80" relative="1" as="geometry">
            <mxPoint x="210" y="550" as="sourcePoint" />
            <mxPoint x="510" y="550" as="targetPoint" />
            <mxPoint as="offset" />
          </mxGeometry>
        </mxCell>
        <mxCell id="qtmXfqeRm_u3KYvekXxL-43" value="" style="endArrow=none;dashed=1;html=1;dashPattern=1 3;strokeWidth=2;rounded=0;entryX=1;entryY=0.75;entryDx=0;entryDy=0;" edge="1" parent="1">
          <mxGeometry width="50" height="50" relative="1" as="geometry">
            <mxPoint x="208.74" y="583.88" as="sourcePoint" />
            <mxPoint x="511.25" y="583.5000000000001" as="targetPoint" />
          </mxGeometry>
        </mxCell>
        <mxCell id="qtmXfqeRm_u3KYvekXxL-44" value="Si el usuario no existe" style="text;html=1;align=center;verticalAlign=middle;resizable=0;points=[];autosize=1;strokeColor=none;fillColor=none;" vertex="1" parent="1">
          <mxGeometry x="200" y="496.25" width="140" height="30" as="geometry" />
        </mxCell>
        <mxCell id="qtmXfqeRm_u3KYvekXxL-45" value="Enviar correo" style="text;html=1;align=center;verticalAlign=middle;resizable=0;points=[];autosize=1;strokeColor=none;fillColor=none;" vertex="1" parent="1">
          <mxGeometry x="315" y="628" width="90" height="30" as="geometry" />
        </mxCell>
        <mxCell id="qtmXfqeRm_u3KYvekXxL-46" value="Mostrar(&quot;Cuenta creada, confirmar correo&quot;)" style="text;html=1;align=center;verticalAlign=middle;resizable=0;points=[];autosize=1;strokeColor=none;fillColor=none;" vertex="1" parent="1">
          <mxGeometry x="235" y="555" width="250" height="30" as="geometry" />
        </mxCell>
        <mxCell id="qtmXfqeRm_u3KYvekXxL-47" value="" style="endArrow=none;dashed=1;html=1;dashPattern=1 3;strokeWidth=2;rounded=0;entryX=1;entryY=1;entryDx=0;entryDy=0;" edge="1" parent="1" target="qtmXfqeRm_u3KYvekXxL-33">
          <mxGeometry width="50" height="50" relative="1" as="geometry">
            <mxPoint x="210" y="656" as="sourcePoint" />
            <mxPoint x="440" y="570" as="targetPoint" />
          </mxGeometry>
        </mxCell>
        <mxCell id="qtmXfqeRm_u3KYvekXxL-48" value="" style="endArrow=none;dashed=1;html=1;dashPattern=1 3;strokeWidth=2;rounded=0;entryX=0.02;entryY=0.3;entryDx=0;entryDy=0;entryPerimeter=0;exitX=0.028;exitY=0.001;exitDx=0;exitDy=0;exitPerimeter=0;" edge="1" parent="1" source="qtmXfqeRm_u3KYvekXxL-33" target="qtmXfqeRm_u3KYvekXxL-27">
          <mxGeometry width="50" height="50" relative="1" as="geometry">
            <mxPoint x="390" y="390" as="sourcePoint" />
            <mxPoint x="440" y="340" as="targetPoint" />
          </mxGeometry>
        </mxCell>
        <mxCell id="JnsaCdNFXt9n72vaLbhK-3" value="" style="endArrow=none;dashed=1;html=1;dashPattern=1 3;strokeWidth=2;rounded=0;" edge="1" parent="1">
          <mxGeometry width="50" height="50" relative="1" as="geometry">
            <mxPoint x="210" y="720" as="sourcePoint" />
            <mxPoint x="510" y="720" as="targetPoint" />
          </mxGeometry>
        </mxCell>
        <mxCell id="JnsaCdNFXt9n72vaLbhK-4" value="Mostrar(&quot;Cuenta creada&quot;)" style="text;html=1;align=center;verticalAlign=middle;resizable=0;points=[];autosize=1;strokeColor=none;fillColor=none;" vertex="1" parent="1">
          <mxGeometry x="284.7" y="688" width="160" height="30" as="geometry" />
        </mxCell>
        <mxCell id="m9i6zZB4paTBu4kcUi9q-1" value="El usuario confirma el correo" style="shape=note;size=20;whiteSpace=wrap;html=1;" vertex="1" parent="1">
          <mxGeometry x="10" y="640" width="100" height="100" as="geometry" />
        </mxCell>
        <mxCell id="m9i6zZB4paTBu4kcUi9q-2" value="" style="endArrow=none;dashed=1;html=1;dashPattern=1 3;strokeWidth=2;rounded=0;exitX=0.028;exitY=0.001;exitDx=0;exitDy=0;exitPerimeter=0;" edge="1" parent="1">
          <mxGeometry width="50" height="50" relative="1" as="geometry">
            <mxPoint x="110" y="688" as="sourcePoint" />
            <mxPoint x="200" y="680" as="targetPoint" />
          </mxGeometry>
        </mxCell>
      </root>
    </mxGraphModel>
  </diagram>
</mxfile>
